<svg xmlns="http://www.w3.org/2000/svg" viewBox="0 0 384 512">
  <path fill="#007fc8" d="M64 0C28.7 0 0 28.7 0 64V448c0 35.3 28.7 64 64 64H320c35.3 0 64-28.7 64-64V170.5c0-17-6.7-33.3-18.7-45.3L258.7 18.7C246.7 6.7 230.5 0 213.5 0H64zM325.5 176H232c-13.3 0-24-10.7-24-24V58.5L325.5 176z"/>
  <g transform="translate(98 170) scale(0.42)">
    <path fill="#007fc8" d="M224 248a120 120 0 1 0 0-240 120 120 0 1 0 0 240zm-29.7 56C95.8 304 16 383.8 16 482.3 16 498.7 29.3 512 45.7 512H402.3c16.4 0 29.7-13.3 29.7-29.7 0-98.5-79.8-178.3-178.3-178.3H194.3z"/>
  </g>
</svg>
