<svg width="1400" height="1400" viewBox="0 0 1400 1400" fill="none" xmlns="http://www.w3.org/2000/svg">
  <defs>
    <linearGradient id="bgGradient" x1="180" y1="1320" x2="1260" y2="140" gradientUnits="userSpaceOnUse">
      <stop offset="0" stop-color="#EFF9FC"/>
      <stop offset="0.52" stop-color="#F8FCFF"/>
      <stop offset="1" stop-color="#F3F9FF"/>
    </linearGradient>
    <radialGradient id="glowBlue" cx="0" cy="0" r="1" gradientUnits="userSpaceOnUse" gradientTransform="translate(230 230) rotate(37) scale(360)">
      <stop stop-color="#2188FF" stop-opacity="0.22"/>
      <stop offset="1" stop-color="#2188FF" stop-opacity="0"/>
    </radialGradient>
    <radialGradient id="glowCyan" cx="0" cy="0" r="1" gradientUnits="userSpaceOnUse" gradientTransform="translate(1160 250) rotate(143) scale(310)">
      <stop stop-color="#22C7E8" stop-opacity="0.20"/>
      <stop offset="1" stop-color="#22C7E8" stop-opacity="0"/>
    </radialGradient>
    <radialGradient id="glowLime" cx="0" cy="0" r="1" gradientUnits="userSpaceOnUse" gradientTransform="translate(760 1220) rotate(166) scale(420)">
      <stop stop-color="#B7EC3A" stop-opacity="0.16"/>
      <stop offset="1" stop-color="#B7EC3A" stop-opacity="0"/>
    </radialGradient>
    <linearGradient id="shellGradient" x1="700" y1="108" x2="700" y2="1292" gradientUnits="userSpaceOnUse">
      <stop stop-color="#FFFFFF"/>
      <stop offset="1" stop-color="#F3FBFF"/>
    </linearGradient>
    <linearGradient id="panelGradient" x1="0" y1="0" x2="0" y2="1">
      <stop stop-color="#FFFFFF"/>
      <stop offset="1" stop-color="#F5FBFE"/>
    </linearGradient>
    <linearGradient id="accentPath" x1="0" y1="0" x2="1" y2="1">
      <stop offset="0" stop-color="#2188FF"/>
      <stop offset="0.55" stop-color="#22C7E8"/>
      <stop offset="1" stop-color="#B7EC3A"/>
    </linearGradient>
    <linearGradient id="sourceGrad" x1="0" y1="1" x2="1" y2="0">
      <stop offset="0" stop-color="#1D6EFF"/>
      <stop offset="1" stop-color="#4BC1FF"/>
    </linearGradient>
    <linearGradient id="targetGrad" x1="0" y1="1" x2="1" y2="0">
      <stop offset="0" stop-color="#4FDB72"/>
      <stop offset="1" stop-color="#C8F13F"/>
    </linearGradient>
    <linearGradient id="darkIcon" x1="1120" y1="178" x2="1200" y2="258" gradientUnits="userSpaceOnUse">
      <stop stop-color="#101E2C"/>
      <stop offset="1" stop-color="#1A2431"/>
    </linearGradient>
  </defs>

  <rect width="1400" height="1400" fill="url(#bgGradient)"/>
  <circle cx="230" cy="230" r="360" fill="url(#glowBlue)"/>
  <circle cx="1160" cy="250" r="310" fill="url(#glowCyan)"/>
  <circle cx="760" cy="1220" r="420" fill="url(#glowLime)"/>

  <rect x="94" y="108" width="1212" height="1196" rx="44" fill="#DDEDF6" fill-opacity="0.8"/>
  <rect x="82" y="92" width="1236" height="1216" rx="44" fill="url(#shellGradient)"/>
  <rect x="82.75" y="92.75" width="1234.5" height="1214.5" rx="43.25" stroke="#DCEAF3" stroke-width="1.5"/>

  <rect x="1098" y="156" width="124" height="124" rx="34" fill="white" fill-opacity="0.92"/>
  <rect x="1098.75" y="156.75" width="122.5" height="122.5" rx="33.25" stroke="#DBEAF4" stroke-width="1.5"/>
  <rect x="1120" y="178" width="80" height="80" rx="24" fill="url(#darkIcon)"/>
  <path d="M1154 222C1182 218 1194 192 1232 192" stroke="url(#accentPath)" stroke-width="11" stroke-linecap="round"/>
  <path d="M1154 222C1191 222 1208 238 1222 238" stroke="url(#accentPath)" stroke-width="11" stroke-linecap="round"/>
  <circle cx="1140" cy="226" r="18" fill="url(#sourceGrad)"/>
  <circle cx="1236" cy="190" r="15" fill="url(#targetGrad)"/>
  <circle cx="1222" cy="238" r="15" fill="url(#targetGrad)"/>

  <text x="146" y="170" fill="#1D6EFF" font-family="Avenir Next, Trebuchet MS, sans-serif" font-size="20" font-weight="700" letter-spacing="5.6">WORKFLOW INTELLIGENCE SYSTEM</text>
  <text x="144" y="264" fill="#101E2C" font-family="Iowan Old Style, Palatino Linotype, Book Antiqua, serif" font-size="82" font-weight="700">Workflow Models</text>
  <text x="146" y="326" fill="#476072" font-family="Avenir Next, Trebuchet MS, sans-serif" font-size="31">Describe the start. Define the finish. Let AI draft the middle.</text>
  <text x="146" y="372" fill="#5E768B" font-family="Avenir Next, Trebuchet MS, sans-serif" font-size="24">Operational workflow design, validation scoring, editable nodes, and structured PDF export.</text>

  <rect x="146" y="422" width="252" height="106" rx="24" fill="white"/>
  <rect x="146.75" y="422.75" width="250.5" height="104.5" rx="23.25" stroke="#DBEAF4" stroke-width="1.5"/>
  <text x="170" y="454" fill="#71889C" font-family="Avenir Next, Trebuchet MS, sans-serif" font-size="18" font-weight="700" letter-spacing="2.4">INPUT</text>
  <text x="170" y="494" fill="#101E2C" font-family="Avenir Next, Trebuchet MS, sans-serif" font-size="29" font-weight="600">Start, finish,</text>
  <text x="170" y="525" fill="#101E2C" font-family="Avenir Next, Trebuchet MS, sans-serif" font-size="29" font-weight="600">context</text>

  <rect x="416" y="422" width="268" height="106" rx="24" fill="white"/>
  <rect x="416.75" y="422.75" width="266.5" height="104.5" rx="23.25" stroke="#DBEAF4" stroke-width="1.5"/>
  <text x="440" y="454" fill="#71889C" font-family="Avenir Next, Trebuchet MS, sans-serif" font-size="18" font-weight="700" letter-spacing="2.4">OUTPUT</text>
  <text x="440" y="494" fill="#101E2C" font-family="Avenir Next, Trebuchet MS, sans-serif" font-size="29" font-weight="600">Structured</text>
  <text x="440" y="525" fill="#101E2C" font-family="Avenir Next, Trebuchet MS, sans-serif" font-size="29" font-weight="600">workflow graph</text>

  <rect x="702" y="422" width="246" height="106" rx="24" fill="white"/>
  <rect x="702.75" y="422.75" width="244.5" height="104.5" rx="23.25" stroke="#DBEAF4" stroke-width="1.5"/>
  <text x="726" y="454" fill="#71889C" font-family="Avenir Next, Trebuchet MS, sans-serif" font-size="18" font-weight="700" letter-spacing="2.4">MODE</text>
  <text x="726" y="494" fill="#101E2C" font-family="Avenir Next, Trebuchet MS, sans-serif" font-size="29" font-weight="600">Review, edit,</text>
  <text x="726" y="525" fill="#101E2C" font-family="Avenir Next, Trebuchet MS, sans-serif" font-size="29" font-weight="600">export</text>

  <rect x="1002" y="382" width="248" height="334" rx="32" fill="#DCEEF7" fill-opacity="0.9"/>
  <rect x="992" y="372" width="248" height="334" rx="32" fill="url(#panelGradient)"/>
  <rect x="992.75" y="372.75" width="246.5" height="332.5" rx="31.25" stroke="#D8E8F3" stroke-width="1.5"/>
  <text x="1022" y="414" fill="#1D6EFF" font-family="Avenir Next, Trebuchet MS, sans-serif" font-size="18" font-weight="700" letter-spacing="4">VALIDATE</text>
  <text x="1022" y="454" fill="#101E2C" font-family="Iowan Old Style, Palatino Linotype, Book Antiqua, serif" font-size="36" font-weight="700">Workflow</text>
  <text x="1022" y="490" fill="#101E2C" font-family="Iowan Old Style, Palatino Linotype, Book Antiqua, serif" font-size="36" font-weight="700">Checks</text>
  <rect x="1022" y="516" width="188" height="96" rx="22" fill="#F7FCFF"/>
  <rect x="1022.75" y="516.75" width="186.5" height="94.5" rx="21.25" stroke="#DCEBF4" stroke-width="1.5"/>
  <text x="1044" y="548" fill="#70869A" font-family="Avenir Next, Trebuchet MS, sans-serif" font-size="16" font-weight="700" letter-spacing="1.8">WORKFLOW EFFICIENCY</text>
  <text x="1042" y="598" fill="#101E2C" font-family="Avenir Next, Trebuchet MS, sans-serif" font-size="56" font-weight="700">92%</text>
  <circle cx="1177" cy="566" r="24" fill="#E8F7EE"/>
  <path d="M1165 566L1173 574L1190 557" stroke="#30B45F" stroke-width="5" stroke-linecap="round" stroke-linejoin="round"/>
  <text x="1022" y="646" fill="#4A6478" font-family="Avenir Next, Trebuchet MS, sans-serif" font-size="18">Source and finish align cleanly</text>
  <rect x="1022" y="664" width="188" height="10" rx="5" fill="#E2EEF5"/>
  <rect x="1022" y="664" width="170" height="10" rx="5" fill="#22C7E8"/>
  <text x="1022" y="702" fill="#4A6478" font-family="Avenir Next, Trebuchet MS, sans-serif" font-size="18">No orphan steps or dead ends</text>
  <rect x="1022" y="720" width="188" height="10" rx="5" fill="#E2EEF5"/>
  <rect x="1022" y="720" width="158" height="10" rx="5" fill="#2188FF"/>
  <text x="1022" y="758" fill="#4A6478" font-family="Avenir Next, Trebuchet MS, sans-serif" font-size="18">Editable graph ready for export</text>
  <rect x="1022" y="776" width="188" height="10" rx="5" fill="#E2EEF5"/>
  <rect x="1022" y="776" width="178" height="10" rx="5" fill="#B7EC3A"/>

  <rect x="154" y="600" width="356" height="314" rx="32" fill="#DCEEF7" fill-opacity="0.9"/>
  <rect x="144" y="592" width="356" height="314" rx="32" fill="url(#panelGradient)"/>
  <rect x="144.75" y="592.75" width="354.5" height="312.5" rx="31.25" stroke="#D8E8F3" stroke-width="1.5"/>
  <text x="172" y="632" fill="#1A2431" font-family="Avenir Next, Trebuchet MS, sans-serif" font-size="18" font-weight="700" letter-spacing="4">ASSIST</text>
  <text x="172" y="672" fill="#101E2C" font-family="Iowan Old Style, Palatino Linotype, Book Antiqua, serif" font-size="34" font-weight="700">Examples &amp; Insights</text>
  <rect x="172" y="706" width="300" height="56" rx="16" fill="#F8FCFF"/>
  <rect x="172.75" y="706.75" width="298.5" height="54.5" rx="15.25" stroke="#DFECF5" stroke-width="1.5"/>
  <text x="190" y="729" fill="#7A90A2" font-family="Avenir Next, Trebuchet MS, sans-serif" font-size="14" font-weight="700" letter-spacing="1.6">WORKFLOW NAME</text>
  <text x="190" y="752" fill="#354C60" font-family="Avenir Next, Trebuchet MS, sans-serif" font-size="18">Hiring Workflow</text>
  <rect x="172" y="778" width="300" height="56" rx="16" fill="#F8FCFF"/>
  <rect x="172.75" y="778.75" width="298.5" height="54.5" rx="15.25" stroke="#DFECF5" stroke-width="1.5"/>
  <text x="190" y="801" fill="#7A90A2" font-family="Avenir Next, Trebuchet MS, sans-serif" font-size="14" font-weight="700" letter-spacing="1.6">CANONICAL EXAMPLE</text>
  <text x="190" y="824" fill="#354C60" font-family="Avenir Next, Trebuchet MS, sans-serif" font-size="18">HR + approvals + onboarding</text>
  <rect x="172" y="850" width="144" height="86" rx="18" fill="#F7FCFF"/>
  <rect x="172.75" y="850.75" width="142.5" height="84.5" rx="17.25" stroke="#DFECF5" stroke-width="1.5"/>
  <text x="192" y="878" fill="#7A90A2" font-family="Avenir Next, Trebuchet MS, sans-serif" font-size="14" font-weight="700" letter-spacing="1.6">CREATIVE MODE</text>
  <text x="192" y="907" fill="#101E2C" font-family="Avenir Next, Trebuchet MS, sans-serif" font-size="20" font-weight="600">Start + finish</text>
  <text x="192" y="931" fill="#101E2C" font-family="Avenir Next, Trebuchet MS, sans-serif" font-size="20" font-weight="600">brief</text>
  <rect x="328" y="850" width="144" height="86" rx="18" fill="#F7FCFF"/>
  <rect x="328.75" y="850.75" width="142.5" height="84.5" rx="17.25" stroke="#DFECF5" stroke-width="1.5"/>
  <text x="348" y="878" fill="#7A90A2" font-family="Avenir Next, Trebuchet MS, sans-serif" font-size="14" font-weight="700" letter-spacing="1.6">SOURCE</text>
  <text x="348" y="907" fill="#101E2C" font-family="Avenir Next, Trebuchet MS, sans-serif" font-size="20" font-weight="600">AI drafting</text>

  <rect x="538" y="600" width="540" height="314" rx="32" fill="#DCEEF7" fill-opacity="0.9"/>
  <rect x="528" y="592" width="540" height="314" rx="32" fill="url(#panelGradient)"/>
  <rect x="528.75" y="592.75" width="538.5" height="312.5" rx="31.25" stroke="#D8E8F3" stroke-width="1.5"/>
  <text x="558" y="632" fill="#1A2431" font-family="Avenir Next, Trebuchet MS, sans-serif" font-size="18" font-weight="700" letter-spacing="4">CREATE &amp; REVIEW</text>
  <text x="558" y="672" fill="#101E2C" font-family="Iowan Old Style, Palatino Linotype, Book Antiqua, serif" font-size="34" font-weight="700">Workflow Draft</text>
  <rect x="558" y="708" width="228" height="92" rx="20" fill="#F8FCFF"/>
  <rect x="558.75" y="708.75" width="226.5" height="90.5" rx="19.25" stroke="#DFECF5" stroke-width="1.5"/>
  <text x="578" y="734" fill="#7A90A2" font-family="Avenir Next, Trebuchet MS, sans-serif" font-size="14" font-weight="700" letter-spacing="1.6">WORKFLOW START</text>
  <text x="578" y="762" fill="#354C60" font-family="Avenir Next, Trebuchet MS, sans-serif" font-size="18">Need for a new hire</text>
  <text x="578" y="788" fill="#354C60" font-family="Avenir Next, Trebuchet MS, sans-serif" font-size="18">confirmed by department</text>
  <rect x="808" y="708" width="228" height="92" rx="20" fill="#F8FCFF"/>
  <rect x="808.75" y="708.75" width="226.5" height="90.5" rx="19.25" stroke="#DFECF5" stroke-width="1.5"/>
  <text x="828" y="734" fill="#7A90A2" font-family="Avenir Next, Trebuchet MS, sans-serif" font-size="14" font-weight="700" letter-spacing="1.6">WORKFLOW FINISH</text>
  <text x="828" y="762" fill="#354C60" font-family="Avenir Next, Trebuchet MS, sans-serif" font-size="18">Employee completes</text>
  <text x="828" y="788" fill="#354C60" font-family="Avenir Next, Trebuchet MS, sans-serif" font-size="18">90-day review</text>
  <rect x="558" y="820" width="478" height="96" rx="20" fill="#F8FCFF"/>
  <rect x="558.75" y="820.75" width="476.5" height="94.5" rx="19.25" stroke="#DFECF5" stroke-width="1.5"/>
  <text x="578" y="846" fill="#7A90A2" font-family="Avenir Next, Trebuchet MS, sans-serif" font-size="14" font-weight="700" letter-spacing="1.6">ADDITIONAL CONTEXT</text>
  <text x="578" y="874" fill="#354C60" font-family="Avenir Next, Trebuchet MS, sans-serif" font-size="18">Roles, approvals, systems, exceptions, and checkpoints</text>
  <text x="578" y="900" fill="#354C60" font-family="Avenir Next, Trebuchet MS, sans-serif" font-size="18">stay editable after AI generation.</text>

  <rect x="154" y="956" width="1096" height="250" rx="34" fill="#DCEEF7" fill-opacity="0.9"/>
  <rect x="144" y="948" width="1096" height="250" rx="34" fill="url(#panelGradient)"/>
  <rect x="144.75" y="948.75" width="1094.5" height="248.5" rx="33.25" stroke="#D8E8F3" stroke-width="1.5"/>
  <text x="174" y="988" fill="#1A2431" font-family="Avenir Next, Trebuchet MS, sans-serif" font-size="18" font-weight="700" letter-spacing="4">EDITABLE GRAPH</text>
  <text x="174" y="1024" fill="#101E2C" font-family="Iowan Old Style, Palatino Linotype, Book Antiqua, serif" font-size="32" font-weight="700">Workflow canvas</text>
  <circle cx="896" cy="1020" r="2" fill="#DBEAF4"/>
  <circle cx="932" cy="1020" r="2" fill="#DBEAF4"/>
  <circle cx="968" cy="1020" r="2" fill="#DBEAF4"/>
  <circle cx="1004" cy="1020" r="2" fill="#DBEAF4"/>
  <circle cx="1040" cy="1020" r="2" fill="#DBEAF4"/>
  <circle cx="896" cy="1056" r="2" fill="#DBEAF4"/>
  <circle cx="932" cy="1056" r="2" fill="#DBEAF4"/>
  <circle cx="968" cy="1056" r="2" fill="#DBEAF4"/>
  <circle cx="1004" cy="1056" r="2" fill="#DBEAF4"/>
  <circle cx="1040" cy="1056" r="2" fill="#DBEAF4"/>
  <circle cx="896" cy="1092" r="2" fill="#DBEAF4"/>
  <circle cx="932" cy="1092" r="2" fill="#DBEAF4"/>
  <circle cx="968" cy="1092" r="2" fill="#DBEAF4"/>
  <circle cx="1004" cy="1092" r="2" fill="#DBEAF4"/>
  <circle cx="1040" cy="1092" r="2" fill="#DBEAF4"/>
  <circle cx="896" cy="1128" r="2" fill="#DBEAF4"/>
  <circle cx="932" cy="1128" r="2" fill="#DBEAF4"/>
  <circle cx="968" cy="1128" r="2" fill="#DBEAF4"/>
  <circle cx="1004" cy="1128" r="2" fill="#DBEAF4"/>
  <circle cx="1040" cy="1128" r="2" fill="#DBEAF4"/>
  <path d="M394 1098C526 1080 566 1030 662 1006C746 984 824 994 900 1044" stroke="url(#accentPath)" stroke-width="18" stroke-linecap="round"/>
  <path d="M394 1098C536 1102 626 1114 754 1110C846 1108 920 1094 992 1066" stroke="url(#accentPath)" stroke-width="18" stroke-linecap="round"/>
  <circle cx="324" cy="1106" r="38" fill="url(#sourceGrad)"/>
  <circle cx="924" cy="1046" r="32" fill="url(#targetGrad)"/>
  <circle cx="1006" cy="1064" r="32" fill="url(#targetGrad)"/>
  <rect x="466" y="1034" width="110" height="44" rx="16" fill="white"/>
  <rect x="466.75" y="1034.75" width="108.5" height="42.5" rx="15.25" stroke="#DCEBF4" stroke-width="1.5"/>
  <text x="498" y="1062" fill="#365066" font-family="Avenir Next, Trebuchet MS, sans-serif" font-size="17" font-weight="600">Draft</text>
  <rect x="624" y="996" width="124" height="44" rx="16" fill="white"/>
  <rect x="624.75" y="996.75" width="122.5" height="42.5" rx="15.25" stroke="#DCEBF4" stroke-width="1.5"/>
  <text x="659" y="1024" fill="#365066" font-family="Avenir Next, Trebuchet MS, sans-serif" font-size="17" font-weight="600">Review</text>
  <rect x="742" y="1086" width="112" height="44" rx="16" fill="white"/>
  <rect x="742.75" y="1086.75" width="110.5" height="42.5" rx="15.25" stroke="#DCEBF4" stroke-width="1.5"/>
  <text x="778" y="1114" fill="#365066" font-family="Avenir Next, Trebuchet MS, sans-serif" font-size="17" font-weight="600">Edit</text>
  <rect x="886" y="1006" width="142" height="44" rx="16" fill="white"/>
  <rect x="886.75" y="1006.75" width="140.5" height="42.5" rx="15.25" stroke="#DCEBF4" stroke-width="1.5"/>
  <text x="918" y="1034" fill="#365066" font-family="Avenir Next, Trebuchet MS, sans-serif" font-size="17" font-weight="600">Validate</text>
  <rect x="1034" y="1092" width="142" height="44" rx="16" fill="white"/>
  <rect x="1034.75" y="1092.75" width="140.5" height="42.5" rx="15.25" stroke="#DCEBF4" stroke-width="1.5"/>
  <text x="1068" y="1120" fill="#365066" font-family="Avenir Next, Trebuchet MS, sans-serif" font-size="17" font-weight="600">Export PDF</text>
</svg>
